<mxfile host="app.diagrams.net" modified="2022-11-07T14:38:06.028Z" agent="5.0 (Windows NT 10.0; Win64; x64) AppleWebKit/537.36 (KHTML, like Gecko) Chrome/107.0.0.0 Safari/537.36" etag="3J1f6ypVo39LdyOgTRdu" version="20.5.2" type="github">
  <diagram id="kgpKYQtTHZ0yAKxKKP6v" name="Page-1">
    <mxGraphModel dx="787" dy="452" grid="1" gridSize="10" guides="1" tooltips="1" connect="1" arrows="1" fold="1" page="1" pageScale="1" pageWidth="850" pageHeight="1100" math="0" shadow="0">
      <root>
        <mxCell id="0" />
        <mxCell id="1" parent="0" />
        <mxCell id="3nuBFxr9cyL0pnOWT2aG-1" value="Image processing&#xa;Device" style="shape=umlLifeline;perimeter=lifelinePerimeter;container=1;collapsible=0;recursiveResize=0;rounded=0;shadow=0;strokeWidth=1;" parent="1" vertex="1">
          <mxGeometry x="50" y="80" width="100" height="300" as="geometry" />
        </mxCell>
        <mxCell id="AGvwCDYYxa1WzB7y1fHZ-10" value="Check" style="rounded=0;whiteSpace=wrap;html=1;" parent="3nuBFxr9cyL0pnOWT2aG-1" vertex="1">
          <mxGeometry y="90" width="100" height="30" as="geometry" />
        </mxCell>
        <mxCell id="3nuBFxr9cyL0pnOWT2aG-5" value="Pi Camera Module" style="shape=umlLifeline;perimeter=lifelinePerimeter;container=1;collapsible=0;recursiveResize=0;rounded=0;shadow=0;strokeWidth=1;" parent="1" vertex="1">
          <mxGeometry x="200" y="80" width="120" height="300" as="geometry" />
        </mxCell>
        <mxCell id="AGvwCDYYxa1WzB7y1fHZ-11" value="1min" style="shape=step;perimeter=stepPerimeter;whiteSpace=wrap;html=1;fixedSize=1;" parent="3nuBFxr9cyL0pnOWT2aG-5" vertex="1">
          <mxGeometry x="10" y="85" width="100" height="40" as="geometry" />
        </mxCell>
        <mxCell id="AGvwCDYYxa1WzB7y1fHZ-12" value="clean_count" style="rounded=0;whiteSpace=wrap;html=1;" parent="3nuBFxr9cyL0pnOWT2aG-5" vertex="1">
          <mxGeometry y="160" width="120" height="40" as="geometry" />
        </mxCell>
        <mxCell id="AGvwCDYYxa1WzB7y1fHZ-13" value="clean_count" style="rounded=0;whiteSpace=wrap;html=1;" parent="3nuBFxr9cyL0pnOWT2aG-5" vertex="1">
          <mxGeometry y="210" width="120" height="40" as="geometry" />
        </mxCell>
        <mxCell id="3nuBFxr9cyL0pnOWT2aG-8" value="dispatch" style="verticalAlign=bottom;endArrow=block;shadow=0;strokeWidth=1;entryX=0;entryY=0.25;entryDx=0;entryDy=0;" parent="1" target="AGvwCDYYxa1WzB7y1fHZ-16" edge="1">
          <mxGeometry relative="1" as="geometry">
            <mxPoint x="320" y="260" as="sourcePoint" />
            <mxPoint x="390" y="260" as="targetPoint" />
            <Array as="points">
              <mxPoint x="360" y="260" />
              <mxPoint x="360" y="173" />
            </Array>
          </mxGeometry>
        </mxCell>
        <mxCell id="3nuBFxr9cyL0pnOWT2aG-9" value="" style="verticalAlign=bottom;endArrow=block;entryX=1;entryY=0.5;shadow=0;strokeWidth=1;entryDx=0;entryDy=0;exitX=0;exitY=0.5;exitDx=0;exitDy=0;" parent="1" target="AGvwCDYYxa1WzB7y1fHZ-10" edge="1" source="AGvwCDYYxa1WzB7y1fHZ-11">
          <mxGeometry relative="1" as="geometry">
            <mxPoint x="230" y="180" as="sourcePoint" />
            <mxPoint x="90" y="180" as="targetPoint" />
          </mxGeometry>
        </mxCell>
        <mxCell id="AGvwCDYYxa1WzB7y1fHZ-1" value="Ultrasonic Sensor" style="shape=umlLifeline;perimeter=lifelinePerimeter;container=1;collapsible=0;recursiveResize=0;rounded=0;shadow=0;strokeWidth=1;" parent="1" vertex="1">
          <mxGeometry x="530" y="80" width="120" height="300" as="geometry" />
        </mxCell>
        <mxCell id="AGvwCDYYxa1WzB7y1fHZ-23" value="dirty" style="rounded=0;whiteSpace=wrap;html=1;" parent="AGvwCDYYxa1WzB7y1fHZ-1" vertex="1">
          <mxGeometry x="5" y="160" width="110" height="40" as="geometry" />
        </mxCell>
        <mxCell id="AGvwCDYYxa1WzB7y1fHZ-24" value="clean" style="rounded=0;whiteSpace=wrap;html=1;" parent="AGvwCDYYxa1WzB7y1fHZ-1" vertex="1">
          <mxGeometry x="5" y="210" width="110" height="40" as="geometry" />
        </mxCell>
        <mxCell id="DRDADM89IqCWtNPqo-K--1" value="&lt;b style=&quot;color: rgb(32, 33, 36); font-family: &amp;quot;Apple SD Gothic Neo&amp;quot;, arial, sans-serif; font-size: 16px; text-align: left; background-color: rgb(255, 255, 255);&quot;&gt;âˆž&lt;/b&gt;" style="shape=step;perimeter=stepPerimeter;whiteSpace=wrap;html=1;fixedSize=1;" vertex="1" parent="AGvwCDYYxa1WzB7y1fHZ-1">
          <mxGeometry x="20" y="80" width="100" height="40" as="geometry" />
        </mxCell>
        <mxCell id="AGvwCDYYxa1WzB7y1fHZ-4" value="Water Level &#xa;measuring Device" style="shape=umlLifeline;perimeter=lifelinePerimeter;container=1;collapsible=0;recursiveResize=0;rounded=0;shadow=0;strokeWidth=1;" parent="1" vertex="1">
          <mxGeometry x="390" y="80" width="100" height="300" as="geometry" />
        </mxCell>
        <mxCell id="AGvwCDYYxa1WzB7y1fHZ-16" value="Check" style="rounded=0;whiteSpace=wrap;html=1;" parent="AGvwCDYYxa1WzB7y1fHZ-4" vertex="1">
          <mxGeometry y="85" width="100" height="30" as="geometry" />
        </mxCell>
        <mxCell id="AGvwCDYYxa1WzB7y1fHZ-20" value="" style="endArrow=none;html=1;rounded=0;entryX=0.5;entryY=0.404;entryDx=0;entryDy=0;entryPerimeter=0;" parent="AGvwCDYYxa1WzB7y1fHZ-4" edge="1">
          <mxGeometry width="50" height="50" relative="1" as="geometry">
            <mxPoint x="49.579999999999984" y="223.8" as="sourcePoint" />
            <mxPoint x="49.579999999999984" y="115.00000000000006" as="targetPoint" />
          </mxGeometry>
        </mxCell>
        <mxCell id="AGvwCDYYxa1WzB7y1fHZ-21" value="dispatch" style="verticalAlign=bottom;startArrow=oval;endArrow=block;startSize=8;shadow=0;strokeWidth=1;entryX=0;entryY=0.5;entryDx=0;entryDy=0;" parent="AGvwCDYYxa1WzB7y1fHZ-4" target="AGvwCDYYxa1WzB7y1fHZ-23" edge="1">
          <mxGeometry relative="1" as="geometry">
            <mxPoint x="50" y="180" as="sourcePoint" />
            <mxPoint x="140" y="180" as="targetPoint" />
          </mxGeometry>
        </mxCell>
        <mxCell id="AGvwCDYYxa1WzB7y1fHZ-22" value="dispatch" style="verticalAlign=bottom;startArrow=oval;endArrow=block;startSize=8;shadow=0;strokeWidth=1;entryX=0;entryY=0.5;entryDx=0;entryDy=0;" parent="AGvwCDYYxa1WzB7y1fHZ-4" target="AGvwCDYYxa1WzB7y1fHZ-24" edge="1">
          <mxGeometry relative="1" as="geometry">
            <mxPoint x="50" y="230" as="sourcePoint" />
            <mxPoint x="140" y="230" as="targetPoint" />
          </mxGeometry>
        </mxCell>
        <mxCell id="AGvwCDYYxa1WzB7y1fHZ-7" value="Filtering Device&#xa;(Water pump)" style="shape=umlLifeline;perimeter=lifelinePerimeter;container=1;collapsible=0;recursiveResize=0;rounded=0;shadow=0;strokeWidth=1;" parent="1" vertex="1">
          <mxGeometry x="700" y="80" width="105" height="300" as="geometry" />
        </mxCell>
        <mxCell id="AGvwCDYYxa1WzB7y1fHZ-26" value="on" style="rounded=0;whiteSpace=wrap;html=1;" parent="AGvwCDYYxa1WzB7y1fHZ-7" vertex="1">
          <mxGeometry x="-5" y="160" width="110" height="40" as="geometry" />
        </mxCell>
        <mxCell id="AGvwCDYYxa1WzB7y1fHZ-27" value="off" style="rounded=0;whiteSpace=wrap;html=1;" parent="AGvwCDYYxa1WzB7y1fHZ-7" vertex="1">
          <mxGeometry x="-5" y="210" width="110" height="40" as="geometry" />
        </mxCell>
        <mxCell id="3nuBFxr9cyL0pnOWT2aG-3" value="dispatch" style="verticalAlign=bottom;startArrow=oval;endArrow=block;startSize=8;shadow=0;strokeWidth=1;entryX=0;entryY=0.5;entryDx=0;entryDy=0;" parent="1" target="AGvwCDYYxa1WzB7y1fHZ-12" edge="1">
          <mxGeometry relative="1" as="geometry">
            <mxPoint x="100" y="260" as="sourcePoint" />
            <mxPoint x="195" y="260" as="targetPoint" />
          </mxGeometry>
        </mxCell>
        <mxCell id="AGvwCDYYxa1WzB7y1fHZ-15" value="dispatch" style="verticalAlign=bottom;startArrow=oval;endArrow=block;startSize=8;shadow=0;strokeWidth=1;entryX=0;entryY=0.5;entryDx=0;entryDy=0;" parent="1" edge="1">
          <mxGeometry relative="1" as="geometry">
            <mxPoint x="100" y="310" as="sourcePoint" />
            <mxPoint x="200" y="310" as="targetPoint" />
          </mxGeometry>
        </mxCell>
        <mxCell id="AGvwCDYYxa1WzB7y1fHZ-17" value="dispatch" style="verticalAlign=bottom;endArrow=block;shadow=0;strokeWidth=1;entryX=0;entryY=0.75;entryDx=0;entryDy=0;exitX=1;exitY=0.5;exitDx=0;exitDy=0;" parent="1" source="AGvwCDYYxa1WzB7y1fHZ-13" target="AGvwCDYYxa1WzB7y1fHZ-16" edge="1">
          <mxGeometry relative="1" as="geometry">
            <mxPoint x="330" y="270" as="sourcePoint" />
            <mxPoint x="400" y="182.5" as="targetPoint" />
            <Array as="points">
              <mxPoint x="370" y="310" />
              <mxPoint x="370" y="190" />
            </Array>
          </mxGeometry>
        </mxCell>
        <mxCell id="AGvwCDYYxa1WzB7y1fHZ-19" value="" style="endArrow=none;html=1;rounded=0;entryX=0.5;entryY=0.404;entryDx=0;entryDy=0;entryPerimeter=0;" parent="1" target="3nuBFxr9cyL0pnOWT2aG-1" edge="1">
          <mxGeometry width="50" height="50" relative="1" as="geometry">
            <mxPoint x="100" y="310" as="sourcePoint" />
            <mxPoint x="450" y="290" as="targetPoint" />
          </mxGeometry>
        </mxCell>
        <mxCell id="AGvwCDYYxa1WzB7y1fHZ-25" value="" style="endArrow=classic;html=1;rounded=0;exitX=1;exitY=0.5;exitDx=0;exitDy=0;entryX=0;entryY=0.5;entryDx=0;entryDy=0;" parent="1" source="AGvwCDYYxa1WzB7y1fHZ-23" target="AGvwCDYYxa1WzB7y1fHZ-26" edge="1">
          <mxGeometry width="50" height="50" relative="1" as="geometry">
            <mxPoint x="400" y="250" as="sourcePoint" />
            <mxPoint x="680" y="260" as="targetPoint" />
          </mxGeometry>
        </mxCell>
        <mxCell id="AGvwCDYYxa1WzB7y1fHZ-28" value="" style="endArrow=classic;html=1;rounded=0;entryX=0;entryY=0.5;entryDx=0;entryDy=0;exitX=1;exitY=0.5;exitDx=0;exitDy=0;" parent="1" source="AGvwCDYYxa1WzB7y1fHZ-24" target="AGvwCDYYxa1WzB7y1fHZ-27" edge="1">
          <mxGeometry width="50" height="50" relative="1" as="geometry">
            <mxPoint x="670" y="350" as="sourcePoint" />
            <mxPoint x="690" y="309.58" as="targetPoint" />
          </mxGeometry>
        </mxCell>
        <mxCell id="DRDADM89IqCWtNPqo-K--2" value="" style="endArrow=classic;html=1;rounded=0;exitX=0;exitY=0.5;exitDx=0;exitDy=0;entryX=1;entryY=0.5;entryDx=0;entryDy=0;" edge="1" parent="1" source="DRDADM89IqCWtNPqo-K--1" target="AGvwCDYYxa1WzB7y1fHZ-16">
          <mxGeometry width="50" height="50" relative="1" as="geometry">
            <mxPoint x="500" y="179.66" as="sourcePoint" />
            <mxPoint x="550" y="179.66" as="targetPoint" />
          </mxGeometry>
        </mxCell>
      </root>
    </mxGraphModel>
  </diagram>
</mxfile>
